
<svg width="307px" height="50px" viewBox="0 0 307 50" version="1.1" xmlns="http://www.w3.org/2000/svg" xmlns:xlink="http://www.w3.org/1999/xlink">
    <!-- Generator: Sketch 44 (41411) - http://www.bohemiancoding.com/sketch -->
    <desc>Created with Sketch.</desc>
    <defs></defs>
    <g id="Page-1" stroke="none" stroke-width="1" fill="none" fill-rule="evenodd">
        <g id="Artboard" transform="translate(-15.000000, -207.000000)" stroke="#303940" stroke-width="4">
            <path d="M17,255 L320,255" id="Line" stroke-linecap="square"></path>
            <path d="M297.857157,255 C299.832238,257.461439 302.582108,259 305.681524,259 L311.021934,259 L311.021934,255 L297.857157,255 Z M37.163698,255 L22.9903949,255 L22.9903949,259 L29.3393307,259 C32.438747,259 35.1886171,257.461439 37.163698,255 Z M37.163698,255 C39.1389928,252.538295 40.3393307,249.153513 40.3393307,245.461538 L40.3393307,218.538462 C40.3393307,213.176978 43.5973736,209 47.3393307,209 L287.681524,209 C291.423482,209 294.681524,213.176978 294.681524,218.538462 L294.681524,245.461538 C294.681524,249.153513 295.881862,252.538295 297.857157,255 L37.163698,255 Z" id="Rectangle-4"></path>
        </g>
    </g>
</svg>
